<svg xmlns="http://www.w3.org/2000/svg" viewBox="0 0 32 32">
  <defs>
    <linearGradient id="bg" x1="0" y1="0" x2="1" y2="1">
      <stop offset="0%" stop-color="#6366f1"/>
      <stop offset="100%" stop-color="#4f46e5"/>
    </linearGradient>
  </defs>
  <rect width="32" height="32" rx="8" fill="url(#bg)"/>
  <path d="M10 7h8l1 1v3h-1V9h-3v3h-5V9h-1v14h12V13h1v11a1 1 0 0 1-1 1H9a1 1 0 0 1-1-1V8a1 1 0 0 1 1-1h1z" fill="white" opacity="0.95"/>
  <rect x="11" y="15" width="10" height="1.5" rx="0.75" fill="white" opacity="0.7"/>
  <rect x="11" y="18.5" width="7" height="1.5" rx="0.75" fill="white" opacity="0.5"/>
  <rect x="11" y="22" width="5" height="1.5" rx="0.75" fill="white" opacity="0.35"/>
  <circle cx="22" cy="11" r="5" fill="#10b981"/>
  <path d="M22 8.5v5M19.5 11h5" stroke="white" stroke-width="1.5" stroke-linecap="round"/>
</svg>
